<?xml version="1.0" encoding="utf-8"?>
<!-- Generator: Adobe Illustrator 24.1.3, SVG Export Plug-In . SVG Version: 6.00 Build 0)  -->
<svg version="1.1" xmlns="http://www.w3.org/2000/svg" xmlns:xlink="http://www.w3.org/1999/xlink" x="0px" y="0px"
	 viewBox="0 0 1080 1080" style="enable-background:new 0 0 1080 1080;" xml:space="preserve">
<style type="text/css">
	.st0{display:none;}
	.st1{fill:#808080;}
	.st2{display:inline;}
	.st3{clip-path:url(#SVGID_2_);fill:#00A99D;}
	.st4{clip-path:url(#SVGID_2_);fill:#F79420;}
	.st5{clip-path:url(#SVGID_2_);fill:#DF4A32;}
	.st6{clip-path:url(#SVGID_2_);fill:#025F55;}
	.st7{clip-path:url(#SVGID_4_);fill:#F79420;}
	.st8{clip-path:url(#SVGID_4_);fill:#00A99D;}
	.st9{fill:#DF4A32;}
	.st10{fill:#F79420;}
	.st11{fill:#00A99D;}
	.st12{fill:#ABEDD8;}
	.st13{fill:#11999E;stroke:#FFFFFF;stroke-width:2;stroke-miterlimit:10;}
	.st14{fill:#40514E;stroke:#FFFFFF;stroke-width:2;stroke-miterlimit:10;}
</style>
<g id="bg" class="st0">
</g>
<g id="sig">
	<path class="st1" d="M-2028.09,766.08h-17.14c-0.79,0-1.43,0.64-1.43,1.43v5.71c0,0.79,0.64,1.43,1.43,1.43s1.43-0.64,1.43-1.43
		v-4.29h14.29v14.29h-14.29v-2.86h10c0.79,0,1.43-0.64,1.43-1.43c0-0.79-0.64-1.43-1.43-1.43h-4.29v-2.86h4.29
		c0.79,0,1.43-0.64,1.43-1.43c0-0.79-0.64-1.43-1.43-1.43h-5.71c-0.79,0-1.43,0.64-1.43,1.43v4.29h-4.29
		c-0.79,0-1.43,0.64-1.43,1.43v5.71c0,0.79,0.64,1.43,1.43,1.43h17.14c0.79,0,1.43-0.64,1.43-1.43v-17.14
		C-2026.66,766.72-2027.3,766.08-2028.09,766.08z"/>
</g>
<g id="zakhraf" class="st0">
	<g class="st2">
		<defs>
			<rect id="SVGID_1_" x="-1042.14" y="132.57" width="964.28" height="1827.05"/>
		</defs>
		<clipPath id="SVGID_2_">
			<use xlink:href="#SVGID_1_"  style="overflow:visible;"/>
		</clipPath>
		<polyline class="st3" points="-1429.89,499.41 -1513.51,583.03 -1513.51,415.78 -1429.89,499.41 		"/>
		<polyline class="st3" points="-1540.62,232.08 -1540.62,350.34 -1658.88,232.08 -1540.62,232.08 		"/>
		<polyline class="st3" points="-1807.94,121.35 -1724.32,204.97 -1891.57,204.97 -1807.94,121.35 		"/>
		<polyline class="st3" points="-2075.28,232.08 -1957.01,232.08 -2075.28,350.34 -2075.28,232.08 		"/>
		<polyline class="st3" points="-2186.01,499.41 -2102.38,415.78 -2102.38,583.03 -2186.01,499.41 		"/>
		<polyline class="st3" points="-2075.28,766.74 -2075.28,648.48 -1957.01,766.74 -2075.28,766.74 		"/>
		<polyline class="st3" points="-1807.94,877.47 -1891.57,793.85 -1724.32,793.85 -1807.94,877.47 		"/>
		<polyline class="st3" points="-1658.88,766.74 -1540.62,648.48 -1540.62,766.74 -1658.88,766.74 		"/>
		<polyline class="st4" points="-1960.93,346.42 -1960.93,397.71 -1909.65,346.42 -1960.93,346.42 		"/>
		<polyline class="st4" points="-1960.93,652.4 -1909.65,652.4 -1960.93,601.11 -1960.93,652.4 		"/>
		<path class="st5" d="M-1697.22,232.08h-221.46l-156.6,156.6v221.46l156.6,156.6h221.46l156.6-156.6V388.68L-1697.22,232.08
			 M-1627.86,574.01v105.5h-105.49l-74.6,74.6l-74.6-74.6h-105.5v-105.5l-74.59-74.6l74.59-74.59v-105.5h105.5l74.6-74.59
			l74.59,74.59h105.5v105.5l74.6,74.6L-1627.86,574.01z"/>
		<polyline class="st4" points="-1807.94,283.06 -1844.21,319.31 -1771.69,319.31 -1807.94,283.06 		"/>
		<polyline class="st4" points="-1807.94,715.76 -1771.69,679.5 -1844.21,679.5 -1807.94,715.76 		"/>
		<polyline class="st4" points="-1988.04,535.67 -1988.04,463.15 -2024.3,499.41 -1988.04,535.67 		"/>
		<polyline class="st4" points="-1627.86,535.67 -1591.59,499.41 -1627.86,463.15 -1627.86,535.67 		"/>
		<polyline class="st4" points="-1654.96,652.4 -1654.96,601.11 -1706.24,652.4 -1654.96,652.4 		"/>
		<polyline class="st4" points="-1654.96,397.71 -1654.96,346.42 -1706.24,346.42 -1654.96,397.71 		"/>
		<path class="st5" d="M-1875.71,499.41c0,37.37,30.4,67.77,67.77,67.77c37.36,0,67.77-30.4,67.77-67.77
			c0-37.36-30.4-67.77-67.77-67.77C-1845.31,431.64-1875.71,462.04-1875.71,499.41"/>
		<path class="st3" d="M-1871.32,346.42l-89.62,89.62v126.74l89.62,89.62h126.74l89.62-89.62V436.04l-89.62-89.62H-1871.32
			 M-1713.07,499.41c0,52.32-42.56,94.88-94.87,94.88c-52.32,0-94.88-42.56-94.88-94.88c0-52.31,42.56-94.87,94.88-94.87
			C-1755.63,404.53-1713.07,447.09-1713.07,499.41z"/>
		<path class="st5" d="M883.77,728.42c-10.94,0.91-18.8-3.36-19.39-3.69l-103.53-59.77v-59.41h59.41l59.78,103.55
			c0.04,0.06,3.86,6.9,3.83,16.66C883.87,726.66,883.83,727.54,883.77,728.42"/>
		<path class="st4" d="M739.99,810.02c-0.45,0.77-0.93,1.52-1.42,2.25c-9.93-4.68-14.6-12.31-14.95-12.9l-59.77-103.53l29.7-51.45
			L745,674.1v119.57C745,793.75,744.9,801.57,739.99,810.02"/>
		<path class="st5" d="M573.26,811.05c-0.77,0.44-1.56,0.85-2.36,1.24c-6.26-9.02-6.49-17.96-6.5-18.64V674.1l51.45-29.7l29.7,51.45
			L585.78,799.4C585.74,799.46,581.73,806.19,573.26,811.05"/>
		<path class="st4" d="M425.69,728.46c-0.91-10.93,3.36-18.79,3.7-19.38l59.77-103.52h59.41v59.41l-103.5,59.76
			c-0.07,0.04-7.31,4.05-17.39,3.85C427.01,728.55,426.35,728.51,425.69,728.46"/>
		<path class="st5" d="M425.65,270.4c10.94-0.91,18.8,3.36,19.39,3.7l103.53,59.77v59.41h-59.41l-59.79-103.55
			c-0.04-0.06-3.86-6.9-3.83-16.66C425.54,272.16,425.58,271.28,425.65,270.4"/>
		<path class="st4" d="M569.77,188.22c0.34-0.57,0.71-1.12,1.08-1.66c9.93,4.68,14.59,12.31,14.94,12.89l59.77,103.53l-29.7,51.45
			l-51.45-29.7V205.2C564.41,205.12,564.56,196.82,569.77,188.22"/>
		<path class="st5" d="M736.15,187.77c0.77-0.44,1.56-0.85,2.35-1.24c6.26,9.02,6.49,17.96,6.5,18.64v119.54l-51.45,29.7
			l-29.7-51.45l59.79-103.55C723.68,199.35,727.68,192.63,736.15,187.77"/>
		<path class="st4" d="M883.72,270.36c0.91,10.94-3.36,18.79-3.69,19.39l-59.77,103.52h-59.41v-59.41l103.5-59.76
			c0.07-0.04,7.36-4.06,17.39-3.85C882.4,270.27,883.06,270.31,883.72,270.36"/>
		<polyline class="st6" points="760.85,438.13 760.85,409.11 811.11,409.11 785.98,452.64 760.85,438.13 		"/>
		<polyline class="st6" points="745,393.27 715.99,393.27 701.48,368.14 745,343.01 745,393.27 		"/>
		<polyline class="st6" points="679.84,362.34 654.71,376.85 629.58,362.34 654.71,318.81 679.84,362.34 		"/>
		<polyline class="st6" points="607.94,368.14 593.43,393.27 564.41,393.27 564.41,343.01 607.94,368.14 		"/>
		<polyline class="st6" points="548.57,409.11 548.57,438.13 523.44,452.64 498.31,409.11 548.57,409.11 		"/>
		<path class="st4" d="M509.72,460.56l-51.45,29.7l-103.55-59.78c-0.07-0.04-6.79-4.05-11.65-12.51c-0.44-0.77-0.86-1.56-1.24-2.35
			c9.02-6.26,17.96-6.49,18.64-6.5h119.54L509.72,460.56"/>
		<polyline class="st6" points="517.64,474.28 532.15,499.41 517.64,524.54 474.11,499.41 517.64,474.28 		"/>
		<path class="st5" d="M509.72,538.26l-29.7,51.45H360.45c-0.1,0-7.91-0.12-16.35-5.01c-0.77-0.45-1.52-0.92-2.25-1.42
			c4.68-9.93,12.31-14.6,12.9-14.95l103.52-59.77L509.72,538.26"/>
		<polyline class="st6" points="523.44,546.18 548.57,560.69 548.57,589.71 498.31,589.71 523.44,546.18 		"/>
		<polyline class="st6" points="564.41,605.55 593.43,605.55 607.94,630.68 564.41,655.81 564.41,605.55 		"/>
		<polyline class="st6" points="629.58,636.48 654.71,621.97 679.84,636.48 654.71,680.01 629.58,636.48 		"/>
		<polyline class="st6" points="701.48,630.68 715.99,605.55 745,605.55 745,655.81 701.48,630.68 		"/>
		<polyline class="st6" points="760.85,589.71 760.85,560.69 785.98,546.18 811.11,589.71 760.85,589.71 		"/>
		<path class="st4" d="M799.69,538.26l51.45-29.7l103.5,59.76c0.07,0.04,7.19,4.32,12.03,13.14c0.32,0.58,0.61,1.17,0.9,1.76
			c-9.02,6.25-17.95,6.49-18.64,6.49H829.4L799.69,538.26"/>
		<polyline class="st6" points="791.78,524.54 777.26,499.41 791.78,474.28 835.3,499.41 791.78,524.54 		"/>
		<path class="st5" d="M799.7,460.56l29.7-51.45h119.57c0.09,0,7.91,0.11,16.35,5.01c0.77,0.45,1.52,0.92,2.25,1.42
			c-4.68,9.93-12.31,14.6-12.9,14.95l-103.52,59.77L799.7,460.56"/>
		<path class="st3" d="M917.63,291.97c16.59,22.27,35.44,27.32,48.88,27.42c-6.62,11.68-11.68,30.53-0.69,56.04
			c3.96,9.19,5.43,17.11,5.36,23.84c-11.21-5.86-21.12-6.02-22.24-6H838.55l55.18-95.58c0.58-1,5.42-9.68,5.93-22.37
			C906.05,278.95,912.05,284.5,917.63,291.97"/>
		<path class="st3" d="M778.68,188.31c25.51,10.99,44.36,5.94,56.04-0.69c0.1,13.43,5.15,32.28,27.42,48.88
			c8.03,5.98,13.25,12.1,16.57,17.96c-12.64,0.53-21.28,5.35-22.26,5.92l-95.61,55.2V205.21c0-1.16-0.15-11.1-6.04-22.34
			C762.14,182.81,770.11,184.62,778.68,188.31"/>
		<path class="st3" d="M606.52,168c27.58-3.24,41.38-17.04,48.19-28.62c6.8,11.58,20.6,25.38,48.19,28.62
			c9.94,1.17,17.51,3.86,23.32,7.28c-10.67,6.78-15.74,15.27-16.3,16.25l-55.2,95.61l-55.18-95.58c-0.57-1-5.68-9.54-16.4-16.32
			C589.45,171.51,597.26,169.09,606.52,168"/>
		<path class="st3" d="M447.27,236.49c22.27-16.6,27.32-35.45,27.42-48.88c11.68,6.62,30.53,11.68,56.04,0.69
			c9.19-3.96,17.11-5.43,23.84-5.36c-5.86,11.21-6.01,21.11-6,22.23v110.4l-95.58-55.18c-1-0.58-9.69-5.42-22.37-5.93
			C434.24,248.07,439.79,242.07,447.27,236.49"/>
		<path class="st3" d="M343.6,375.43c10.99-25.51,5.94-44.36-0.69-56.04c13.43-0.1,32.28-5.15,48.88-27.42
			c5.98-8.03,12.1-13.25,17.96-16.56c0.53,12.64,5.35,21.28,5.92,22.26l55.2,95.6H360.5c-0.01,0-0.03,0-0.04,0
			c-1.35,0-11.19,0.22-22.3,6.04C338.11,391.98,339.92,384,343.6,375.43"/>
		<path class="st3" d="M294.68,499.41c11.58-6.81,25.38-20.6,28.62-48.19c1.17-9.94,3.86-17.51,7.28-23.32
			c6.78,10.67,15.27,15.75,16.25,16.3l95.61,55.2l-95.58,55.18c-1,0.57-9.54,5.68-16.33,16.41c-3.71-6.33-6.14-14.14-7.23-23.41
			C320.06,520.01,306.26,506.21,294.68,499.41"/>
		<path class="st3" d="M391.79,706.85c-16.6-22.27-35.45-27.32-48.88-27.42c6.63-11.68,11.68-30.53,0.69-56.04
			c-3.96-9.19-5.43-17.11-5.36-23.84c11.08,5.79,20.87,6,22.19,6c0.01,0,0.03,0,0.04,0h110.4l-55.18,95.58
			c-0.58,1-5.42,9.68-5.93,22.37C403.37,719.87,397.36,714.32,391.79,706.85"/>
		<path class="st3" d="M530.73,810.51c-25.51-10.99-44.36-5.93-56.04,0.69c-0.1-13.43-5.15-32.28-27.42-48.88
			c-8.02-5.98-13.25-12.1-16.56-17.96c12.64-0.53,21.28-5.35,22.26-5.92l95.61-55.2v110.37c-0.01,1.16,0.15,11.1,6.04,22.34
			C547.28,816.01,539.3,814.2,530.73,810.51"/>
		<path class="st3" d="M702.89,830.82c-27.59,3.24-41.38,17.04-48.19,28.62c-6.81-11.58-20.6-25.38-48.19-28.62
			c-9.94-1.17-17.51-3.86-23.32-7.28c10.67-6.78,15.75-15.27,16.3-16.25l55.2-95.61l55.18,95.58c0.57,1,5.68,9.54,16.41,16.32
			C719.96,827.31,712.16,829.73,702.89,830.82"/>
		<path class="st3" d="M862.14,762.33c-22.27,16.6-27.32,35.45-27.42,48.88c-11.68-6.62-30.53-11.68-56.04-0.69
			c-9.19,3.96-17.11,5.43-23.84,5.36c5.86-11.21,6.01-21.11,6-22.23v-110.4l95.58,55.18c1,0.58,9.69,5.42,22.37,5.93
			C875.17,750.74,869.62,756.75,862.14,762.33"/>
		<path class="st3" d="M965.81,623.38c-10.99,25.51-5.93,44.36,0.69,56.04c-13.43,0.1-32.28,5.15-48.88,27.42
			c-5.98,8.03-12.1,13.25-17.96,16.56c-0.53-12.64-5.35-21.28-5.92-22.26l-55.2-95.6h110.37c0.01,0,0.03,0,0.04,0
			c1.35,0,11.19-0.22,22.29-6.04C971.3,606.85,969.5,614.82,965.81,623.38"/>
		<path class="st3" d="M986.12,547.59c-1.17,9.94-3.86,17.52-7.28,23.32c-6.78-10.67-15.27-15.75-16.25-16.3l-95.6-55.2l95.58-55.18
			c1-0.57,9.54-5.68,16.32-16.41c3.71,6.33,6.14,14.14,7.23,23.4c3.24,27.59,17.04,41.38,28.62,48.19
			C1003.16,506.21,989.36,520.01,986.12,547.59"/>
		<path class="st3" d="M764.86,512.97c-1.35,0-2.71-0.34-3.96-1.06c-3.79-2.19-5.08-7.03-2.9-10.82l0.97-1.68l-0.97-1.68
			c-2.19-3.79-0.89-8.63,2.9-10.82c1.82-1.05,3.88-1.29,5.77-0.84l11.38-19.71l-19.71-11.38c-1.42,1.34-3.32,2.16-5.42,2.16
			c-4.37,0-7.92-3.55-7.92-7.92v-1.94l-1.68-0.97c-3.79-2.18-5.09-7.03-2.9-10.82c1.05-1.82,2.71-3.06,4.58-3.62v-22.76h-22.76
			c-0.56,1.86-1.8,3.53-3.62,4.58c-3.79,2.19-8.63,0.89-10.82-2.9l-0.97-1.68h-1.94c-4.37,0-7.92-3.55-7.92-7.92
			c0-2.1,0.82-4,2.16-5.42l-11.38-19.71l-19.71,11.38c0.45,1.9,0.21,3.96-0.84,5.77c-2.18,3.79-7.03,5.09-10.82,2.9l-1.68-0.97
			l-1.68,0.97c-3.79,2.19-8.63,0.89-10.82-2.9c-1.05-1.82-1.29-3.88-0.84-5.77l-19.71-11.38l-11.38,19.71
			c1.33,1.42,2.16,3.32,2.16,5.42c0,4.37-3.55,7.92-7.92,7.92h-1.94l-0.97,1.68c-2.19,3.79-7.03,5.08-10.82,2.9
			c-1.82-1.05-3.06-2.72-3.62-4.58h-22.76v22.76c1.87,0.56,3.53,1.8,4.58,3.62c2.19,3.79,0.89,8.63-2.9,10.82l-1.68,0.97v1.94
			c0,4.37-3.54,7.92-7.92,7.92c-2.1,0-4.01-0.82-5.42-2.16l-19.71,11.38l11.38,19.71c1.9-0.45,3.96-0.21,5.78,0.84
			c3.79,2.19,5.08,7.03,2.9,10.82l-0.97,1.68l0.97,1.68c2.19,3.79,0.89,8.63-2.9,10.82c-1.25,0.72-2.61,1.06-3.96,1.06
			c-0.62,0-1.22-0.08-1.82-0.22l-11.38,19.71l19.71,11.38c1.42-1.34,3.32-2.16,5.42-2.16c4.37,0,7.92,3.55,7.92,7.92v1.94l1.68,0.97
			c3.79,2.19,5.08,7.03,2.9,10.82c-1.05,1.82-2.71,3.05-4.58,3.61v22.76h22.76c0.56-1.86,1.8-3.53,3.62-4.58
			c3.79-2.19,8.63-0.89,10.82,2.9l0.97,1.68h1.94c4.37,0,7.92,3.55,7.92,7.92c0,2.1-0.82,4.01-2.16,5.42l11.38,19.71l19.71-11.38
			c-0.45-1.89-0.21-3.96,0.84-5.77c2.19-3.79,7.03-5.09,10.82-2.9l1.68,0.97l1.68-0.97c3.79-2.19,8.63-0.89,10.82,2.9
			c1.05,1.82,1.29,3.88,0.84,5.77l19.71,11.38l11.38-19.71c-1.33-1.42-2.16-3.32-2.16-5.42c0-4.37,3.55-7.92,7.92-7.92h1.94
			l0.97-1.68c2.19-3.79,7.03-5.09,10.82-2.9c1.82,1.05,3.06,2.72,3.62,4.58H745v-22.76c-1.86-0.56-3.53-1.79-4.58-3.61
			c-2.19-3.79-0.89-8.63,2.9-10.82l1.68-0.97v-1.94c0-4.37,3.55-7.92,7.92-7.92c2.1,0,4.01,0.82,5.42,2.16l19.71-11.38l-11.38-19.71
			C766.08,512.89,765.47,512.97,764.86,512.97 M654.71,536.84c-20.67,0-37.43-16.76-37.43-37.43c0-20.67,16.75-37.43,37.43-37.43
			c20.67,0,37.43,16.76,37.43,37.43C692.13,520.08,675.38,536.84,654.71,536.84z"/>
		<polyline class="st3" points="-1443.58,1607.37 -1609.73,1607.37 -1640.41,1554.24 -1587.28,1523.56 -1443.38,1606.64 
			-1442.92,1607.15 -1443.58,1607.37 		"/>
		<polyline class="st3" points="-1540.73,1776.57 -1541.41,1776.42 -1685.3,1693.34 -1685.3,1631.99 -1623.95,1631.99 
			-1540.87,1775.88 -1540.73,1776.57 		"/>
		<polyline class="st3" points="-1710.14,1874.37 -1710.66,1873.9 -1793.73,1730.02 -1763.06,1676.88 -1709.92,1707.56 
			-1709.92,1873.71 -1710.14,1874.37 		"/>
		<polyline class="st3" points="-1905.75,1874.37 -1905.97,1873.71 -1905.97,1707.56 -1852.84,1676.88 -1822.16,1730.02 
			-1905.24,1873.9 -1905.75,1874.37 		"/>
		<polyline class="st3" points="-2075.16,1776.57 -2075.02,1775.88 -1991.95,1631.99 -1930.59,1631.99 -1930.59,1693.34 
			-2074.48,1776.42 -2075.16,1776.57 		"/>
		<polyline class="st3" points="-2172.97,1607.15 -2172.51,1606.64 -2028.62,1523.56 -1975.48,1554.24 -2006.16,1607.37 
			-2172.31,1607.37 -2172.97,1607.15 		"/>
		<polyline class="st3" points="-2172.97,1411.54 -2172.31,1411.32 -2006.16,1411.32 -1975.48,1464.46 -2028.62,1495.13 
			-2172.51,1412.06 -2172.97,1411.54 		"/>
		<polyline class="st3" points="-2075.16,1242.13 -2074.48,1242.27 -1930.59,1325.35 -1930.59,1386.7 -1991.95,1386.7 
			-2075.02,1242.81 -2075.16,1242.13 		"/>
		<polyline class="st3" points="-1905.75,1144.32 -1905.24,1144.78 -1822.16,1288.68 -1852.84,1341.81 -1905.97,1311.13 
			-1905.97,1144.98 -1905.75,1144.32 		"/>
		<polyline class="st3" points="-1710.14,1144.32 -1709.92,1144.98 -1709.92,1311.13 -1763.06,1341.81 -1793.73,1288.67 
			-1710.65,1144.78 -1710.14,1144.32 		"/>
		<polyline class="st3" points="-1540.73,1242.13 -1540.87,1242.81 -1623.95,1386.7 -1685.3,1386.7 -1685.3,1325.35 
			-1541.41,1242.27 -1540.73,1242.13 		"/>
		<polyline class="st3" points="-1442.92,1411.54 -1443.38,1412.06 -1587.28,1495.13 -1640.41,1464.45 -1609.73,1411.32 
			-1443.58,1411.32 -1442.92,1411.54 		"/>
		<polyline class="st5" points="-1654.91,1529.12 -1748.43,1509.35 -1654.91,1489.57 -1652.72,1485.78 -1611.9,1509.35 
			-1652.72,1532.92 -1654.91,1529.12 		"/>
		<polyline class="st5" points="-1661.73,1452.15 -1665.53,1449.95 -1756.41,1479.59 -1685.3,1415.7 -1685.3,1411.32 
			-1638.16,1411.32 -1661.73,1452.15 		"/>
		<polyline class="st5" points="-1709.92,1386.7 -1714.31,1386.7 -1778.19,1457.81 -1748.55,1366.93 -1750.74,1363.13 
			-1709.92,1339.56 -1709.92,1386.7 		"/>
		<polyline class="st5" points="-1784.38,1354.12 -1788.17,1356.31 -1807.94,1449.84 -1827.72,1356.31 -1831.51,1354.12 
			-1807.94,1313.3 -1784.38,1354.12 		"/>
		<polyline class="st5" points="-1865.15,1363.13 -1867.34,1366.93 -1837.7,1457.81 -1901.59,1386.7 -1905.97,1386.7 
			-1905.97,1339.56 -1865.15,1363.13 		"/>
		<polyline class="st5" points="-1930.59,1411.32 -1930.59,1415.7 -1859.48,1479.59 -1950.37,1449.95 -1954.16,1452.15 
			-1977.73,1411.32 -1930.59,1411.32 		"/>
		<polyline class="st5" points="-1963.17,1485.78 -1960.98,1489.57 -1867.46,1509.35 -1960.98,1529.12 -1963.17,1532.92 
			-2004,1509.35 -1963.17,1485.78 		"/>
		<polyline class="st5" points="-1954.16,1566.55 -1950.37,1568.74 -1859.48,1539.1 -1930.59,1602.99 -1930.59,1607.37 
			-1977.73,1607.37 -1954.16,1566.55 		"/>
		<polyline class="st5" points="-1905.97,1631.99 -1901.59,1631.99 -1837.7,1560.89 -1867.34,1651.76 -1865.15,1655.56 
			-1905.97,1679.13 -1905.97,1631.99 		"/>
		<polyline class="st5" points="-1831.51,1664.58 -1827.72,1662.38 -1807.94,1568.86 -1788.17,1662.38 -1784.38,1664.58 
			-1807.94,1705.4 -1831.51,1664.58 		"/>
		<polyline class="st5" points="-1750.74,1655.56 -1748.55,1651.76 -1778.19,1560.89 -1714.31,1631.99 -1709.92,1631.99 
			-1709.92,1679.13 -1750.74,1655.56 		"/>
		<polyline class="st5" points="-1685.3,1607.37 -1685.3,1602.99 -1756.41,1539.1 -1665.53,1568.74 -1661.73,1566.55 
			-1638.16,1607.37 -1685.3,1607.37 		"/>
		<polyline class="st4" points="-1530.8,1509.35 -1496.46,1547.56 -1562.66,1509.35 -1496.46,1471.13 -1530.8,1509.35 		"/>
		<polyline class="st4" points="-1519.08,1386.7 -1595.52,1386.7 -1557.3,1320.51 -1567.93,1370.77 -1519.08,1386.7 		"/>
		<polyline class="st4" points="-1669.37,1269.33 -1619.11,1258.7 -1685.3,1296.92 -1685.3,1220.48 -1669.37,1269.33 		"/>
		<polyline class="st4" points="-1807.94,1232.2 -1769.73,1197.86 -1807.94,1264.05 -1846.16,1197.86 -1807.94,1232.2 		"/>
		<polyline class="st4" points="-1946.52,1269.33 -1930.59,1220.48 -1930.59,1296.92 -1996.79,1258.7 -1946.52,1269.33 		"/>
		<polyline class="st4" points="-2047.96,1370.77 -2058.59,1320.51 -2020.38,1386.7 -2096.81,1386.7 -2047.96,1370.77 		"/>
		<polyline class="st4" points="-2085.1,1509.35 -2119.43,1471.13 -2053.24,1509.35 -2119.43,1547.56 -2085.1,1509.35 		"/>
		<polyline class="st4" points="-2096.81,1631.99 -2020.38,1631.99 -2058.59,1698.18 -2047.96,1647.92 -2096.81,1631.99 		"/>
		<polyline class="st4" points="-1946.52,1749.37 -1996.79,1759.99 -1930.59,1721.77 -1930.59,1798.21 -1946.52,1749.37 		"/>
		<polyline class="st4" points="-1807.94,1786.5 -1846.16,1820.83 -1807.94,1754.64 -1769.73,1820.83 -1807.94,1786.5 		"/>
		<polyline class="st4" points="-1669.37,1749.37 -1685.3,1798.21 -1685.3,1721.77 -1619.1,1759.99 -1669.37,1749.37 		"/>
		<polyline class="st4" points="-1567.93,1647.92 -1557.3,1698.19 -1595.52,1631.99 -1519.08,1631.99 -1567.93,1647.92 		"/>
		<path class="st3" d="M-1763.87,1474.28c0,18.77-15.22,33.99-33.99,33.99c-18.77,0-33.99-15.22-33.99-33.99
			c0-18.77,15.22-33.99,33.99-33.99C-1779.09,1440.29-1763.87,1455.51-1763.87,1474.28"/>
		<polyline class="st5" points="-387.97,1218.61 -351.32,1255.26 -299.49,1255.26 -299.49,1307.09 -262.84,1343.74 -307.15,1388.04 
			-432.27,1388.04 -432.27,1262.91 -387.97,1218.61 		"/>
		<polyline class="st4" points="-642.05,1186.66 -590.23,1186.66 -553.58,1150.01 -516.93,1186.66 -465.1,1186.66 -465.1,1249.32 
			-553.58,1337.79 -642.05,1249.32 -642.05,1186.66 		"/>
		<polyline class="st5" points="-844.31,1343.74 -807.66,1307.09 -807.66,1255.26 -755.83,1255.26 -719.19,1218.61 -674.88,1262.91 
			-674.88,1388.04 -800.01,1388.04 -844.31,1343.74 		"/>
		<polyline class="st4" points="-876.26,1597.82 -876.26,1545.99 -912.91,1509.35 -876.26,1472.7 -876.26,1420.87 -813.61,1420.87 
			-725.13,1509.35 -813.6,1597.82 -876.26,1597.82 		"/>
		<polyline class="st5" points="-719.19,1800.08 -755.83,1763.43 -807.66,1763.43 -807.66,1711.61 -844.31,1674.95 -800.01,1630.65 
			-674.88,1630.65 -674.88,1755.78 -719.19,1800.08 		"/>
		<polyline class="st4" points="-465.1,1832.03 -516.93,1832.03 -553.58,1868.68 -590.23,1832.03 -642.05,1832.03 -642.05,1769.37 
			-553.58,1680.9 -465.1,1769.37 -465.1,1832.03 		"/>
		<polyline class="st5" points="-262.84,1674.95 -299.49,1711.6 -299.49,1763.43 -351.32,1763.43 -387.97,1800.08 -432.27,1755.78 
			-432.27,1630.65 -307.15,1630.65 -262.84,1674.95 		"/>
		<polyline class="st4" points="-230.89,1545.99 -230.89,1597.82 -293.55,1597.82 -382.02,1509.35 -293.55,1420.87 -230.89,1420.87 
			-230.89,1472.7 -194.24,1509.35 -230.89,1545.99 		"/>
		<path class="st3" d="M-417.69,1509.35l-5.38-5.38l83.1-83.1h-117.51v-7.61h-7.61v-117.52l-83.1,83.1l-5.38-5.38l-5.38,5.38
			l-83.09-83.09v117.51h-7.61v7.61h-117.51l83.1,83.1l-5.38,5.38l5.38,5.38l-83.1,83.09h117.51v7.61h7.61v117.51l83.09-83.1
			l5.38,5.38l5.38-5.38l83.1,83.1v-117.51h7.61v-7.61h117.51l-83.1-83.09L-417.69,1509.35 M-482.63,1538.73v41.56h-41.56
			l-29.39,29.39l-29.39-29.39h-41.56v-41.56l-29.39-29.39l29.39-29.39v-41.56h41.56l29.39-29.39l29.39,29.39h41.56v41.56
			l29.39,29.39L-482.63,1538.73z"/>
		<polyline class="st3" points="872.3,1366.76 1014.89,1509.35 872.3,1651.94 830.91,1610.55 932.11,1509.35 830.91,1408.14 
			872.3,1366.76 		"/>
		<polyline class="st5" points="743.29,1497.21 814.46,1426.03 885.64,1497.21 743.29,1497.21 		"/>
		<polyline class="st4" points="885.64,1521.48 814.46,1592.66 743.29,1521.48 885.64,1521.48 		"/>
		<polyline class="st6" points="713.26,1491.46 672.59,1450.79 755.91,1367.47 796.58,1408.14 713.26,1491.46 		"/>
		<polyline class="st4" points="666.85,1420.76 666.85,1278.41 738.02,1349.59 666.85,1420.76 		"/>
		<polyline class="st5" points="642.57,1420.76 571.4,1349.59 642.57,1278.41 642.57,1420.76 		"/>
		<polyline class="st6" points="636.82,1450.79 596.15,1491.46 512.84,1408.15 553.51,1367.48 636.82,1450.79 		"/>
		<polyline class="st4" points="566.13,1497.21 423.78,1497.21 494.95,1426.03 566.13,1497.21 		"/>
		<polyline class="st5" points="566.13,1521.48 494.95,1592.66 423.78,1521.48 566.13,1521.48 		"/>
		<polyline class="st4" points="642.57,1597.93 642.57,1740.28 571.4,1669.1 642.57,1597.93 		"/>
		<polyline class="st5" points="666.85,1597.93 738.02,1669.1 666.85,1740.28 666.85,1597.93 		"/>
		<polyline class="st3" points="654.71,1550.02 653.99,1550.73 613.32,1510.06 614.03,1509.35 613.32,1508.63 653.99,1467.96 
			654.71,1468.67 655.43,1467.96 696.1,1508.63 695.38,1509.35 696.1,1510.06 655.43,1550.73 654.71,1550.02 		"/>
		<polyline class="st3" points="512.12,1291.75 654.71,1149.16 797.3,1291.75 755.91,1333.14 755.19,1332.42 654.71,1231.95 
			553.51,1333.14 512.12,1291.75 		"/>
		<polyline class="st3" points="437.11,1651.94 294.53,1509.35 437.11,1366.76 478.51,1408.15 477.79,1408.86 377.31,1509.35 
			478.51,1610.55 437.11,1651.94 		"/>
		<polyline class="st6" points="512.84,1610.55 596.15,1527.23 636.82,1567.9 553.51,1651.22 512.84,1610.55 		"/>
		<polyline class="st3" points="797.3,1726.94 654.71,1869.53 512.12,1726.94 553.51,1685.55 554.23,1686.27 654.71,1786.75 
			755.19,1686.27 755.91,1685.55 797.3,1726.94 		"/>
		<polyline class="st6" points="755.91,1651.22 672.59,1567.9 713.26,1527.23 796.58,1610.55 755.91,1651.22 		"/>
		<path class="st5" d="M-1424.93,2519.28l-88.06,88.06v-32.03c0-19.49-2.94-38.3-8.39-56.03c5.45-17.72,8.39-36.54,8.39-56.03
			v-32.03L-1424.93,2519.28"/>
		<path class="st3" d="M-2077.85,2557.72c11.91,20.84,27.64,39.23,46.23,54.22c-2.54,23.74-0.66,47.87,5.65,71.03
			c-4.53-3.68-8.91-7.61-13.1-11.79l-39.71-39.71v-56.16C-2078.78,2569.37-2078.46,2563.5-2077.85,2557.72"/>
		<path class="st3" d="M-2078.78,2463.25v-56.15l39.71-39.71c4.14-4.14,8.46-8.03,12.94-11.67c-4.41,16.23-6.69,33.14-6.69,50.41
			c0,6.92,0.38,13.79,1.1,20.58c-18.54,14.97-34.24,33.33-46.13,54.14C-2078.46,2475.06-2078.78,2469.19-2078.78,2463.25"/>
		<path class="st3" d="M-1538.04,2480.85c-11.89-20.81-27.59-39.17-46.13-54.14c0.72-6.79,1.1-13.66,1.1-20.58
			c0-17.27-2.28-34.18-6.69-50.41c4.48,3.64,8.8,7.53,12.94,11.67l39.71,39.71v56.15
			C-1537.11,2469.19-1537.43,2475.06-1538.04,2480.85"/>
		<path class="st4" d="M-1589.28,2584.33c-5.78-22.34-15.66-43.83-29.62-63.26l1.78-1.78l-1.76-1.76
			c13.8-19.13,23.83-40.5,29.7-63.19c18.82,17.86,33.48,40.05,42.38,64.95C-1555.72,2544.23-1570.42,2566.45-1589.28,2584.33"/>
		<path class="st6" d="M-1697.28,2629.95c-2.21,0.09-4.44,0.15-6.67,0.15h-23.98l30.79-30.8v23.98
			C-1697.14,2625.51-1697.2,2627.74-1697.28,2629.95"/>
		<path class="st6" d="M-1918.61,2629.95c-0.09-2.21-0.15-4.43-0.15-6.67v-23.98l30.79,30.8h-23.98
			C-1914.18,2630.09-1916.4,2630.03-1918.61,2629.95"/>
		<path class="st6" d="M-1964.45,2519.29c1.5-1.63,3.03-3.24,4.61-4.82l16.96-16.96v43.55l-16.96-16.96
			C-1961.41,2522.52-1962.94,2520.91-1964.45,2519.29"/>
		<path class="st6" d="M-1918.61,2408.62c2.21-0.09,4.43-0.15,6.66-0.15h23.98l-30.79,30.8v-23.98
			C-1918.75,2413.05-1918.7,2410.83-1918.61,2408.62"/>
		<path class="st6" d="M-1697.28,2408.62c0.08,2.21,0.14,4.43,0.14,6.67v23.98l-30.79-30.8h23.98
			C-1701.72,2408.47-1699.5,2408.53-1697.28,2408.62"/>
		<polyline class="st3" points="-1762.05,2630.09 -1853.85,2630.09 -1918.75,2565.18 -1918.75,2473.39 -1853.85,2408.47 
			-1762.05,2408.47 -1697.14,2473.39 -1697.14,2565.18 -1762.05,2630.09 		"/>
		<path class="st6" d="M-1786.17,2654.21l-16.96,16.96c-1.58,1.58-3.19,3.11-4.81,4.61c-1.63-1.51-3.24-3.04-4.82-4.61l-16.96-16.96
			H-1786.17"/>
		<path class="st6" d="M-1829.72,2384.35l16.96-16.96c1.58-1.58,3.19-3.11,4.82-4.61c1.63,1.51,3.24,3.04,4.81,4.61l16.96,16.96
			H-1829.72"/>
		<path class="st6" d="M-1673.02,2541.06v-43.55l16.96,16.96c1.58,1.58,3.11,3.19,4.61,4.82c-1.51,1.63-3.04,3.23-4.61,4.81
			L-1673.02,2541.06"/>
		<path class="st5" d="M-1673.02,2463.39v-52.03c22.96,4.32,44.28,13.36,62.9,26.07c-4.26,22.55-13.11,43.84-26.09,62.77
			L-1673.02,2463.39"/>
		<path class="st5" d="M-1703.95,2384.35h-48.11l-34.02-34.02c-0.01-0.01-0.02-0.01-0.02-0.02l-2.77-2.77
			c18.93-12.98,40.22-21.83,62.77-26.09c12.71,18.62,21.75,39.94,26.07,62.9H-1703.95"/>
		<path class="st5" d="M-1829.8,2350.31c-0.01,0.01-0.01,0.01-0.02,0.02l-34.02,34.02h-52.03c4.32-22.96,13.36-44.28,26.07-62.9
			c22.54,4.26,43.84,13.11,62.77,26.09L-1829.8,2350.31"/>
		<path class="st5" d="M-1942.88,2415.28v48.11l-34.02,34.02c-0.01,0.01-0.02,0.02-0.03,0.02l-2.77,2.77
			c-12.98-18.93-21.83-40.22-26.09-62.77c18.62-12.71,39.94-21.75,62.9-26.07V2415.28"/>
		<path class="st5" d="M-1942.88,2575.17v52.03c-22.93-4.32-44.21-13.33-62.81-26.01c4.19-22.12,12.86-43.55,26.02-62.81
			L-1942.88,2575.17"/>
		<path class="st5" d="M-1911.95,2654.21h48.11l34.02,34.02c0.01,0.01,0.02,0.01,0.02,0.02l2.77,2.77
			c-18.93,12.98-40.22,21.83-62.77,26.09c-12.71-18.62-21.75-39.94-26.07-62.9H-1911.95"/>
		<path class="st5" d="M-1786.1,2688.26c0.01-0.01,0.02-0.02,0.02-0.02l34.02-34.02h52.03c-4.32,22.96-13.36,44.28-26.07,62.9
			c-22.55-4.26-43.85-13.11-62.77-26.09L-1786.1,2688.26"/>
		<path class="st5" d="M-1673.02,2623.28v-48.11l36.79-36.79c13.16,19.26,21.83,40.69,26.02,62.81
			c-18.6,12.68-39.89,21.7-62.81,26.01V2623.28"/>
		<path class="st4" d="M-1607.19,2406.13c0,1.53-0.02,3.05-0.06,4.58c-19.9-11.74-42.11-19.97-65.76-23.84v-2.52h-2.52
			c-3.87-23.65-12.1-45.86-23.83-65.76c1.52-0.04,3.05-0.07,4.58-0.07c25.17,0,49.49,5.54,71.57,16.04
			C-1612.73,2356.64-1607.19,2380.96-1607.19,2406.13"/>
		<path class="st3" d="M-1694.79,2294.4c-6.93,0-13.79,0.38-20.58,1.1c-14.98-18.54-33.34-34.24-54.14-46.13
			c5.78-0.61,11.65-0.93,17.59-0.93h56.15l39.71,39.71c4.14,4.14,8.03,8.46,11.67,12.94
			C-1660.61,2296.69-1677.52,2294.4-1694.79,2294.4"/>
		<path class="st4" d="M-1743,2300.52c-22.69,5.88-44.06,15.91-63.19,29.7l-1.76-1.76l-1.76,1.76
			c-19.13-13.8-40.51-23.83-63.19-29.7c17.86-18.81,40.05-33.47,64.95-42.38C-1783.04,2267.04-1760.85,2281.7-1743,2300.52"/>
		<path class="st3" d="M-1900.52,2295.5c-6.79-0.72-13.65-1.1-20.58-1.1c-17.26,0-34.18,2.29-50.4,6.69
			c3.64-4.48,7.53-8.8,11.67-12.94l39.71-39.71h56.16c5.94,0,11.81,0.32,17.59,0.93
			C-1867.19,2261.27-1885.55,2276.96-1900.52,2295.5"/>
		<path class="st4" d="M-1921.1,2318.52c1.53,0,3.06,0.03,4.58,0.07c-11.74,19.9-19.97,42.1-23.83,65.76h-2.52v2.52
			c-23.65,3.87-45.86,12.1-65.76,23.84c-0.04-1.52-0.06-3.05-0.06-4.58c0-25.17,5.54-49.49,16.03-71.57
			C-1970.59,2324.06-1946.27,2318.52-1921.1,2318.52"/>
		<path class="st4" d="M-2026.71,2454.33c5.88,22.69,15.91,44.05,29.7,63.19l-1.76,1.76l1.78,1.78
			c-13.97,19.43-23.84,40.92-29.62,63.26c-18.86-17.87-33.56-40.1-42.48-65.04C-2060.19,2494.38-2045.53,2472.19-2026.71,2454.33"/>
		<path class="st4" d="M-2008.56,2627.91c19.88,11.71,42.06,19.92,65.68,23.79v2.52h2.52c3.87,23.65,12.1,45.86,23.83,65.76
			c-1.52,0.04-3.05,0.06-4.58,0.06c-25.12,0-49.4-5.52-71.44-15.98C-2003.92,2680.08-2009.26,2653.93-2008.56,2627.91"/>
		<path class="st3" d="M-1921.1,2744.16c6.93,0,13.79-0.38,20.58-1.1c14.98,18.54,33.34,34.24,54.14,46.13
			c-5.78,0.61-11.65,0.93-17.59,0.93h-56.16l-39.71-39.71c-4.15-4.15-8.04-8.48-11.66-12.94
			C-1955.28,2741.88-1938.36,2744.16-1921.1,2744.16"/>
		<path class="st4" d="M-1872.9,2738.05c22.69-5.88,44.06-15.91,63.19-29.7l1.76,1.76l1.76-1.76c19.13,13.8,40.5,23.83,63.19,29.7
			c-17.86,18.82-40.05,33.47-64.95,42.38C-1832.85,2771.52-1855.04,2756.86-1872.9,2738.05"/>
		<path class="st3" d="M-1715.37,2743.06c6.79,0.72,13.65,1.1,20.58,1.1c17.26,0,34.17-2.28,50.39-6.69
			c-3.62,4.46-7.5,8.78-11.66,12.94l-39.71,39.71h-56.15c-5.94,0-11.81-0.32-17.59-0.93
			C-1748.71,2777.3-1730.35,2761.6-1715.37,2743.06"/>
		<path class="st4" d="M-1694.79,2720.04c-1.53,0-3.06-0.02-4.58-0.06c11.74-19.9,19.97-42.11,23.83-65.76h2.52v-2.52
			c23.62-3.86,45.8-12.08,65.68-23.79c0.7,26.02-4.64,52.17-16.01,76.16C-1645.39,2714.52-1669.67,2720.04-1694.79,2720.04"/>
		<path class="st3" d="M-1584.26,2611.93c18.58-14.99,34.31-33.38,46.23-54.22c0.61,5.78,0.93,11.65,0.93,17.59v56.16l-39.71,39.71
			c-4.19,4.19-8.56,8.11-13.1,11.79C-1583.6,2659.81-1581.72,2635.68-1584.26,2611.93"/>
		<path class="st5" d="M-1537.11,2248.45v124.54l-22.65-22.65c-13.63-13.63-28.95-24.93-45.49-33.74
			c-8.8-16.54-20.11-31.87-33.74-45.5l-22.65-22.65H-1537.11"/>
		<path class="st5" d="M-1807.94,2136.26l88.06,88.06h-32.03c-19.49,0-38.3,2.94-56.03,8.39c-17.73-5.45-36.54-8.39-56.03-8.39
			h-32.03L-1807.94,2136.26"/>
		<path class="st5" d="M-2078.78,2248.45h124.53l-22.65,22.65c-13.63,13.63-24.93,28.95-33.74,45.5
			c-16.54,8.8-31.87,20.11-45.49,33.74l-22.65,22.65V2248.45"/>
		<path class="st5" d="M-2190.97,2519.28l88.06-88.06v32.03c0,19.49,2.94,38.3,8.39,56.03c-5.45,17.73-8.39,36.54-8.39,56.03v32.03
			L-2190.97,2519.28"/>
		<path class="st5" d="M-2078.78,2790.12v-124.53l22.65,22.65c13.66,13.66,29.03,24.99,45.62,33.8
			c8.67,16.34,19.87,31.69,33.62,45.43l22.65,22.65H-2078.78"/>
		<path class="st5" d="M-1807.94,2902.3l-88.06-88.06h32.03c19.49,0,38.3-2.94,56.03-8.39c17.72,5.45,36.54,8.39,56.03,8.39h32.03
			L-1807.94,2902.3"/>
		<path class="st5" d="M-1661.65,2790.12l22.65-22.65c13.75-13.75,24.95-29.09,33.62-45.43c16.59-8.81,31.96-20.14,45.62-33.8
			l22.65-22.65v124.53H-1661.65"/>
		<polyline class="st4" points="-393.93,2178.61 -212.9,2359.64 -213.96,2363.58 -330.56,2296.26 -397.88,2179.67 -393.93,2178.61 
					"/>
		<polyline class="st5" points="-308.55,2406.26 -412.66,2378.36 -440.55,2274.25 -421.52,2263.26 -342.93,2308.64 -297.56,2387.23 
			-308.55,2406.26 		"/>
		<polyline class="st6" points="-399.66,2492.17 -414.82,2507.33 -447.01,2475.14 -447.01,2429.62 -425.57,2429.62 -408.5,2459.19 
			-399.66,2492.17 		"/>
		<polyline class="st6" points="-408.5,2579.38 -425.57,2608.95 -447.01,2608.95 -447.01,2563.42 -414.82,2531.23 -399.66,2546.4 
			-408.5,2579.38 		"/>
		<polyline class="st6" points="-493.48,2664.36 -526.46,2673.2 -541.63,2658.03 -509.44,2625.85 -463.91,2625.85 -463.91,2647.29 
			-493.48,2664.36 		"/>
		<polyline class="st6" points="-613.67,2664.36 -643.24,2647.29 -643.24,2625.85 -597.72,2625.85 -565.53,2658.03 -580.69,2673.2 
			-613.67,2664.36 		"/>
		<polyline class="st6" points="-707.49,2546.4 -692.33,2531.23 -660.14,2563.42 -660.14,2608.95 -681.58,2608.95 -698.66,2579.38 
			-707.49,2546.4 		"/>
		<polyline class="st6" points="-698.66,2459.19 -681.58,2429.62 -660.14,2429.62 -660.14,2475.14 -692.33,2507.33 -707.49,2492.17 
			-698.66,2459.19 		"/>
		<polyline class="st6" points="-613.67,2374.2 -580.69,2365.36 -565.53,2380.53 -597.72,2412.72 -643.24,2412.72 -643.24,2391.27 
			-613.67,2374.2 		"/>
		<polyline class="st6" points="-493.49,2374.2 -463.91,2391.27 -463.91,2412.72 -509.44,2412.72 -541.63,2380.53 -526.46,2365.36 
			-493.49,2374.2 		"/>
		<polyline class="st4" points="-492.54,2429.62 -463.91,2429.62 -463.91,2458.24 -492.54,2429.62 		"/>
		<polyline class="st3" points="-463.91,2482.14 -463.91,2556.42 -516.44,2608.95 -590.72,2608.95 -643.24,2556.42 -643.24,2482.14 
			-590.72,2429.62 -516.44,2429.62 -463.91,2482.14 		"/>
		<polyline class="st4" points="-533.34,2412.72 -573.81,2412.72 -553.58,2392.48 -533.34,2412.72 		"/>
		<polyline class="st4" points="-614.62,2429.62 -643.24,2458.24 -643.24,2429.62 -614.62,2429.62 		"/>
		<polyline class="st4" points="-660.14,2499.04 -660.14,2539.52 -680.38,2519.28 -660.14,2499.04 		"/>
		<polyline class="st4" points="-643.24,2580.32 -614.62,2608.95 -643.24,2608.95 -643.24,2580.32 		"/>
		<polyline class="st4" points="-573.81,2625.85 -533.34,2625.85 -553.58,2646.08 -573.81,2625.85 		"/>
		<polyline class="st4" points="-492.54,2608.95 -463.91,2580.32 -463.91,2608.95 -492.54,2608.95 		"/>
		<polyline class="st4" points="-447.01,2539.52 -447.01,2499.04 -426.78,2519.28 -447.01,2539.52 		"/>
		<polyline class="st3" points="-420.95,2412.72 -447.01,2412.72 -447.01,2386.65 -426.46,2392.16 -420.95,2412.72 		"/>
		<polyline class="st4" points="-486.96,2358.45 -536.68,2329.75 -455.71,2283 -431.51,2373.31 -486.96,2358.45 		"/>
		<polyline class="st3" points="-535.14,2350.15 -553.58,2368.58 -572.01,2350.15 -553.58,2339.51 -535.14,2350.15 		"/>
		<polyline class="st4" points="-620.19,2358.45 -675.65,2373.31 -651.45,2283 -570.48,2329.75 -620.19,2358.45 		"/>
		<polyline class="st3" points="-660.14,2386.65 -660.14,2412.72 -686.21,2412.72 -680.7,2392.16 -660.14,2386.65 		"/>
		<polyline class="st4" points="-714.41,2452.67 -743.11,2502.38 -789.86,2421.41 -699.55,2397.21 -714.41,2452.67 		"/>
		<polyline class="st3" points="-722.71,2500.85 -704.28,2519.28 -722.71,2537.71 -733.35,2519.28 -722.71,2500.85 		"/>
		<polyline class="st4" points="-714.41,2585.9 -699.55,2641.35 -789.86,2617.15 -743.11,2536.18 -714.41,2585.9 		"/>
		<polyline class="st3" points="-686.21,2625.85 -660.14,2625.85 -660.14,2651.91 -680.7,2646.4 -686.21,2625.85 		"/>
		<polyline class="st4" points="-620.19,2680.11 -570.48,2708.82 -651.45,2755.57 -675.65,2665.26 -620.19,2680.11 		"/>
		<polyline class="st3" points="-572.01,2688.42 -553.58,2669.99 -535.14,2688.42 -553.58,2699.06 -572.01,2688.42 		"/>
		<polyline class="st4" points="-486.96,2680.11 -431.51,2665.26 -455.71,2755.57 -536.68,2708.82 -486.96,2680.11 		"/>
		<polyline class="st3" points="-447.01,2651.91 -447.01,2625.85 -420.95,2625.85 -426.46,2646.4 -447.01,2651.91 		"/>
		<polyline class="st4" points="-392.75,2585.9 -364.04,2536.18 -317.3,2617.15 -407.61,2641.35 -392.75,2585.9 		"/>
		<polyline class="st3" points="-384.44,2537.71 -402.87,2519.28 -384.44,2500.85 -373.8,2519.28 -384.44,2537.71 		"/>
		<polyline class="st4" points="-392.75,2452.66 -407.61,2397.21 -317.3,2421.41 -364.04,2502.38 -392.75,2452.66 		"/>
		<polyline class="st3" points="-421.52,2243.75 -445.08,2257.35 -452.12,2231.07 -520.93,2212.64 -414.78,2184.19 -359.83,2279.36 
			-421.52,2243.75 		"/>
		<polyline class="st5" points="-465.92,2244.87 -460.24,2266.1 -553.58,2319.99 -646.92,2266.1 -641.23,2244.87 -553.58,2221.39 
			-465.92,2244.87 		"/>
		<polyline class="st3" points="-655.03,2231.07 -662.07,2257.35 -685.63,2243.75 -747.32,2279.36 -692.38,2184.19 -586.23,2212.64 
			-655.03,2231.07 		"/>
		<polyline class="st5" points="-685.63,2263.26 -666.6,2274.25 -694.5,2378.36 -798.61,2406.26 -809.59,2387.23 -764.22,2308.64 
			-685.63,2263.26 		"/>
		<polyline class="st3" points="-829.11,2387.23 -815.51,2410.78 -841.79,2417.83 -860.22,2486.63 -888.66,2380.49 -793.5,2325.54 
			-829.11,2387.23 		"/>
		<polyline class="st5" points="-827.99,2431.63 -806.76,2425.94 -752.87,2519.28 -806.76,2612.62 -827.99,2606.94 -851.48,2519.28 
			-827.99,2431.63 		"/>
		<polyline class="st3" points="-841.79,2620.74 -815.51,2627.78 -829.11,2651.34 -793.5,2713.03 -888.66,2658.08 -860.22,2551.93 
			-841.79,2620.74 		"/>
		<polyline class="st5" points="-809.59,2651.34 -798.61,2632.31 -694.5,2660.21 -666.6,2764.31 -685.63,2775.3 -764.22,2729.93 
			-809.59,2651.34 		"/>
		<polyline class="st3" points="-685.63,2794.82 -662.07,2781.22 -655.03,2807.49 -586.23,2825.93 -692.38,2854.37 -747.32,2759.2 
			-685.63,2794.82 		"/>
		<polyline class="st5" points="-641.23,2793.69 -646.92,2772.46 -553.58,2718.58 -460.24,2772.46 -465.92,2793.69 -553.58,2817.18 
			-641.23,2793.69 		"/>
		<polyline class="st3" points="-452.12,2807.49 -445.08,2781.22 -421.52,2794.82 -359.83,2759.2 -414.78,2854.37 -520.93,2825.93 
			-452.12,2807.49 		"/>
		<polyline class="st5" points="-421.52,2775.3 -440.55,2764.31 -412.66,2660.21 -308.55,2632.31 -297.56,2651.34 -342.93,2729.93 
			-421.52,2775.3 		"/>
		<polyline class="st3" points="-278.04,2651.34 -291.64,2627.78 -265.37,2620.74 -246.93,2551.93 -218.49,2658.08 -313.66,2713.03 
			-278.04,2651.34 		"/>
		<polyline class="st5" points="-279.17,2606.94 -300.39,2612.62 -354.28,2519.28 -300.39,2425.94 -279.17,2431.63 -255.68,2519.28 
			-279.17,2606.94 		"/>
		<polyline class="st3" points="-265.37,2417.83 -291.64,2410.78 -278.04,2387.23 -313.66,2325.54 -218.49,2380.49 -246.93,2486.63 
			-265.37,2417.83 		"/>
		<polyline class="st4" points="-681.58,2165.51 -425.57,2165.51 -423.53,2169.04 -553.58,2203.89 -683.63,2169.04 -681.58,2165.51 
					"/>
		<polyline class="st4" points="-894.25,2359.64 -713.22,2178.61 -709.27,2179.67 -776.59,2296.26 -893.19,2363.58 -894.25,2359.64 
					"/>
		<polyline class="st4" points="-907.35,2647.29 -907.35,2391.27 -903.82,2389.23 -868.97,2519.28 -903.82,2649.33 -907.35,2647.29 
					"/>
		<polyline class="st4" points="-713.22,2859.96 -894.25,2678.92 -893.19,2674.98 -776.59,2742.3 -709.28,2858.9 -713.22,2859.96 		
			"/>
		<polyline class="st4" points="-425.57,2873.06 -681.58,2873.06 -683.63,2869.53 -553.58,2834.68 -423.53,2869.52 -425.57,2873.06 
					"/>
		<polyline class="st4" points="-212.9,2678.92 -393.93,2859.96 -397.88,2858.9 -330.56,2742.3 -213.96,2674.98 -212.9,2678.92 		
			"/>
		<polyline class="st4" points="-238.18,2519.28 -203.33,2389.23 -199.8,2391.27 -199.8,2647.29 -203.33,2649.33 -238.18,2519.28 		
			"/>
		<path class="st4" d="M785.99,2266.74c14.74,0,28.55,5.69,38.88,16.02l7.88,7.89l50.95-50.95c6.76-6.76,15.74-10.48,25.3-10.48
			c9.55,0,18.54,3.72,25.29,10.48c13.95,13.94,13.95,36.64,0,50.59l-50.95,50.95l7.88,7.88c13.74,13.75,18.66,33.01,14.78,50.72
			c-5.99-1.55-12.25-2.39-18.72-2.39h-83.16l-27.58-27.58v-83.16c0-6.45-0.84-12.71-2.38-18.69
			C778,2267.18,781.96,2266.74,785.99,2266.74"/>
		<path class="st6" d="M846.49,2471.61c-0.1-10.4-2.34-20.29-6.28-29.27c-3.61-9.23-9.06-17.7-16.18-24.95h63.26
			c3.71,0,7.33,0.37,10.83,1.08c-1.98,2.97-4.28,5.8-6.9,8.42L846.49,2471.61"/>
		<path class="st6" d="M462.93,2566.95c0.1,10.4,2.34,20.3,6.29,29.28c3.61,9.23,9.06,17.69,16.18,24.95h-63.26
			c-3.71,0-7.33-0.38-10.83-1.07c1.98-2.98,4.28-5.8,6.9-8.42L462.93,2566.95"/>
		<path class="st5" d="M812.75,2505.02l-36.21-36.21v-51.2c20.25,1.82,37.35,14.64,45.29,32.44
			C828.8,2468.25,825.78,2489.42,812.75,2505.02"/>
		<polyline class="st4" points="756.61,2621.18 725.1,2621.18 756.61,2589.68 756.61,2621.18 		"/>
		<path class="st3" d="M696.92,2417.38H612.5l-59.69,59.69v84.42l59.69,59.69h84.41l59.7-59.69v-84.41L696.92,2417.38
			 M654.71,2559.41c-22.16,0-40.12-17.96-40.12-40.12c0-22.16,17.96-40.12,40.12-40.12c22.16,0,40.12,17.96,40.12,40.12
			C694.83,2541.44,676.87,2559.41,654.71,2559.41z"/>
		<polyline class="st4" points="654.71,2663.39 632.43,2641.12 676.98,2641.12 654.71,2663.39 		"/>
		<polyline class="st4" points="552.81,2589.68 584.31,2621.18 552.81,2621.18 552.81,2589.68 		"/>
		<polyline class="st4" points="552.81,2417.38 584.31,2417.38 552.81,2448.88 552.81,2417.38 		"/>
		<polyline class="st4" points="654.71,2375.17 676.99,2397.45 632.43,2397.45 654.71,2375.17 		"/>
		<polyline class="st4" points="532.87,2497 532.87,2541.56 510.6,2519.28 532.87,2497 		"/>
		<polyline class="st4" points="756.61,2448.89 725.11,2417.38 756.61,2417.38 756.61,2448.89 		"/>
		<polyline class="st4" points="776.54,2497.01 798.82,2519.28 776.54,2541.56 776.54,2497.01 		"/>
		<path class="st5" d="M756.38,2397.45h-51.2l-36.21-36.21c9.83-8.21,22.16-12.69,35.21-12.69c6.96,0,13.7,1.28,19.98,3.71
			C741.84,2360.24,754.57,2377.29,756.38,2397.45"/>
		<path class="st5" d="M605.23,2348.55c13.06,0,25.38,4.48,35.21,12.69l-36.21,36.21h-51.2c1.81-20.16,14.54-37.21,32.23-45.19
			C591.54,2349.83,598.28,2348.55,605.23,2348.55"/>
		<path class="st5" d="M532.87,2417.62v51.2l-36.21,36.21c-13.03-15.6-16.06-36.77-9.08-54.97
			C495.52,2432.26,512.63,2419.43,532.87,2417.62"/>
		<path class="st5" d="M496.67,2533.54l36.21,36.21v51.2c-20.24-1.82-37.35-14.64-45.29-32.43
			C480.61,2570.32,483.63,2549.15,496.67,2533.54"/>
		<path class="st5" d="M553.04,2641.12h51.2l36.21,36.21c-9.83,8.21-22.16,12.69-35.21,12.69c-6.95,0-13.69-1.28-19.97-3.71
			C567.58,2678.33,554.85,2661.28,553.04,2641.12"/>
		<path class="st5" d="M704.18,2690.01c-13.06,0-25.38-4.48-35.21-12.69l36.21-36.21h51.2c-1.81,20.16-14.54,37.21-32.22,45.19
			C717.88,2688.73,711.14,2690.01,704.18,2690.01"/>
		<path class="st5" d="M776.54,2620.95v-51.2l36.21-36.21c13.04,15.6,16.06,36.78,9.08,54.97
			C813.89,2606.31,796.78,2619.14,776.54,2620.95"/>
		<path class="st6" d="M756.61,2286.7v63.26c-7.25-7.11-15.73-12.56-24.95-16.18c-8.98-3.95-18.88-6.18-29.28-6.28l44.73-44.73
			c2.6-2.6,5.42-4.91,8.42-6.9C756.23,2279.37,756.61,2283,756.61,2286.7"/>
		<path class="st6" d="M577.76,2333.78c-9.23,3.61-17.7,9.07-24.96,16.18v-63.26c0-3.71,0.38-7.33,1.08-10.83c3,2,5.82,4.3,8.42,6.9
			l44.73,44.73C596.64,2327.6,586.75,2329.84,577.76,2333.78"/>
		<path class="st6" d="M469.21,2442.34c-3.95,8.98-6.18,18.87-6.28,29.27l-44.73-44.73c-2.62-2.62-4.92-5.45-6.9-8.42
			c3.5-0.7,7.12-1.08,10.83-1.08h63.26C478.27,2424.64,472.82,2433.11,469.21,2442.34"/>
		<path class="st6" d="M552.81,2751.86v-63.26c7.26,7.11,15.73,12.56,24.96,16.18c8.98,3.95,18.87,6.18,29.27,6.28l-44.73,44.73
			c-2.6,2.6-5.42,4.91-8.42,6.9C553.18,2759.19,552.81,2755.57,552.81,2751.86"/>
		<path class="st6" d="M731.66,2704.78c9.23-3.61,17.7-9.06,24.95-16.18v63.26c0,3.71-0.38,7.33-1.08,10.83
			c-3-1.99-5.82-4.3-8.42-6.9l-44.73-44.73C712.78,2710.96,722.68,2708.73,731.66,2704.78"/>
		<path class="st6" d="M840.2,2596.24c3.95-8.99,6.18-18.88,6.28-29.28l44.73,44.73c2.62,2.62,4.92,5.45,6.9,8.42
			c-3.5,0.7-7.13,1.07-10.83,1.07h-63.26C831.14,2613.93,836.59,2605.46,840.2,2596.24"/>
		<path class="st3" d="M607.79,2231.72h11.14v-72.05c0-19.73,16.05-35.77,35.77-35.77s35.77,16.05,35.77,35.77v72.05h11.15
			c19.43,0,36.53,10.14,46.31,25.4c-5.38,3.17-10.4,7.03-14.92,11.56l-58.81,58.81h-39l-58.81-58.81
			c-4.52-4.52-9.54-8.38-14.91-11.56C571.26,2241.86,588.36,2231.72,607.79,2231.72"/>
		<path class="st4" d="M418.19,2349.12l7.89-7.88l-50.95-50.95c-6.75-6.76-10.48-15.74-10.48-25.29c0-9.56,3.72-18.54,10.48-25.3
			c6.76-6.75,15.74-10.48,25.3-10.48c9.55,0,18.54,3.72,25.29,10.48l50.96,50.95l7.87-7.88c10.33-10.33,24.14-16.03,38.88-16.03
			c4.03,0,7.99,0.44,11.83,1.27c-1.54,5.98-2.38,12.24-2.38,18.69v83.16l-27.58,27.58h-83.16c-6.46,0-12.73,0.84-18.72,2.39
			C399.53,2382.13,404.45,2362.86,418.19,2349.12"/>
		<path class="st3" d="M367.15,2566.2v-11.15h-72.06c-19.72,0-35.77-16.05-35.77-35.77c0-19.72,16.05-35.77,35.77-35.77h72.06
			v-11.15c0-19.43,10.14-36.54,25.41-46.32c3.14,5.33,6.98,10.35,11.55,14.92l58.81,58.81v39l-58.81,58.81
			c-4.57,4.57-8.41,9.6-11.55,14.92C377.29,2602.73,367.15,2585.63,367.15,2566.2"/>
	</g>
	<g class="st2">
		<defs>
			<rect id="SVGID_3_" x="-1191.54" y="-94.72" width="418" height="792"/>
		</defs>
		<clipPath id="SVGID_4_">
			<use xlink:href="#SVGID_3_"  style="overflow:visible;"/>
		</clipPath>
		<path class="st7" d="M-512.89,1049.36c-6.39,0-12.38-2.47-16.85-6.95l-3.42-3.42l-22.09,22.08c-2.93,2.93-6.82,4.54-10.96,4.54
			c-4.14,0-8.04-1.61-10.97-4.54c-2.93-2.93-4.54-6.82-4.54-10.96c0-4.14,1.61-8.04,4.54-10.96l22.09-22.09l-3.42-3.41
			c-5.96-5.96-8.09-14.31-6.41-21.99c2.6,0.67,5.31,1.03,8.11,1.03h36.05l11.96,11.96v36.05c0,2.8,0.36,5.51,1.03,8.1
			C-509.42,1049.17-511.14,1049.36-512.89,1049.36"/>
		<path class="st8" d="M-435.64,1064.54h-4.83v31.23c0,8.55-6.95,15.51-15.51,15.51s-15.51-6.96-15.51-15.51v-31.23h-4.83
			c-8.42,0-15.84-4.39-20.07-11.01c2.33-1.37,4.5-3.05,6.47-5.01l25.49-25.49h16.91l25.49,25.49c1.96,1.96,4.13,3.64,6.47,5.01
			C-419.81,1060.14-427.22,1064.54-435.64,1064.54"/>
	</g>
</g>
<g id="Layer_5">
	<g>
		<polyline class="st9" points="-417.09,277.27 -297.85,277.85 -297.27,397.1 -324.62,424.45 -444.45,424.45 -444.45,304.62 
			-417.09,277.27 		"/>
		<polyline class="st10" points="-444.45,587.86 -418.38,561.79 -355.43,624.73 -444.45,624.73 -444.45,587.86 		"/>
		<polyline class="st10" points="-512.14,655.55 -475.27,655.55 -475.27,744.56 -538.21,681.62 -512.14,655.55 		"/>
		<polyline class="st10" points="-607.86,655.55 -581.79,681.62 -644.73,744.57 -644.73,655.55 -607.86,655.55 		"/>
		<polyline class="st10" points="-675.55,624.73 -764.57,624.73 -701.62,561.79 -675.55,587.86 -675.55,624.73 		"/>
		<polyline class="st10" points="-675.55,492.14 -701.62,518.21 -764.57,455.27 -675.55,455.27 -675.55,492.14 		"/>
		<polyline class="st10" points="-607.86,424.45 -644.73,424.45 -644.73,335.43 -581.79,398.38 -607.86,424.45 		"/>
		<polyline class="st10" points="-512.14,424.45 -538.21,398.38 -475.27,335.44 -475.27,424.45 -512.14,424.45 		"/>
		<polyline class="st10" points="-444.45,492.14 -444.45,455.27 -355.43,455.27 -418.38,518.21 -444.45,492.14 		"/>
		<polyline class="st11" points="-644.73,253.17 -560,169.26 -475.27,253.17 -475.27,291.85 -560,376.58 -644.73,291.85 
			-644.73,253.17 		"/>
		<polyline class="st9" points="-822.73,397.1 -822.15,277.85 -702.9,277.27 -675.55,304.62 -675.55,424.45 -795.38,424.45 
			-822.73,397.1 		"/>
		<polyline class="st11" points="-846.83,624.73 -930.74,540 -846.83,455.27 -808.15,455.27 -723.41,540 -808.15,624.73 
			-846.83,624.73 		"/>
		<polyline class="st9" points="-702.9,802.73 -822.15,802.15 -822.73,682.9 -795.38,655.55 -675.55,655.55 -675.55,775.38 
			-702.9,802.73 		"/>
		<polyline class="st11" points="-475.27,826.83 -560,910.74 -644.73,826.83 -644.73,788.15 -560,703.42 -475.27,788.15 
			-475.27,826.83 		"/>
		<polyline class="st9" points="-297.27,682.9 -297.85,802.15 -417.09,802.73 -444.45,775.38 -444.45,655.55 -324.62,655.55 
			-297.27,682.9 		"/>
		<polyline class="st11" points="-311.85,624.73 -396.58,540 -311.85,455.27 -273.17,455.27 -189.26,540 -273.17,624.73 
			-311.85,624.73 		"/>
	</g>
</g>
<g id="callig">
	<rect x="-1870.26" y="512.21" width="150" height="30"/>
	<rect x="-1830.26" y="592.21" width="110" height="30"/>
	<rect x="-1830.26" y="632.21" width="110" height="30"/>
	
		<rect x="-1810.26" y="572.21" transform="matrix(-1.836970e-16 1 -1 -1.836970e-16 -1148.0465 2322.4707)" width="150" height="30"/>
	
		<rect x="-1850.26" y="612.21" transform="matrix(-1.836970e-16 1 -1 -1.836970e-16 -1188.0465 2442.4707)" width="70" height="30"/>
	<rect x="-1870.26" y="552.21" width="110" height="30"/>
	<rect x="-1870.26" y="672.21" width="150" height="30"/>
	
		<rect x="-1930.26" y="612.21" transform="matrix(-1.836970e-16 1 -1 -1.836970e-16 -1228.0465 2482.4707)" width="150" height="30"/>
	<g>
		<polygon points="-639.06,424.45 -675.55,424.45 -675.55,460.94 -675.55,521.76 -675.55,558.24 -639.06,558.24 -493.1,558.24 
			-493.1,521.76 -639.06,521.76 -639.06,460.94 -444.45,460.94 -444.45,424.45 		"/>
		<path d="M-626.9,473.1v36.49h145.96v60.82h-158.12h-36.49v36.49v12.16v36.49h36.49h158.12h36.49v-36.49V606.9v-36.49v-60.82V473.1
			h-36.49H-626.9z M-480.94,619.06h-158.12V606.9h158.12V619.06z"/>
	</g>
</g>
<g id="ac2">
	<g>
		<polygon class="st12" points="625.26,85.26 540,0 454.74,85.26 312.63,227.37 227.37,312.63 312.63,397.89 653.68,738.95 
			738.95,653.68 397.89,312.63 540,170.53 994.74,625.26 1080,540 		"/>
		<path class="st12" d="M540,227.37l-85.26,85.26l341.05,341.05L653.68,795.79L284.21,426.32l-85.26-85.26l-85.26,85.26
			l-28.42,28.42L0,540l85.26,85.26l369.47,369.47L540,1080l85.26-85.26l28.42-28.42l85.26-85.26l142.11-142.11l85.26-85.26
			l-85.26-85.26L540,227.37z M540,909.47L170.53,540l28.42-28.42l369.47,369.47L540,909.47z"/>
	</g>
	<polygon class="st13" points="278.74,158.16 158.16,158.16 158.16,278.74 158.16,479.71 158.16,600.29 278.74,600.29 
		761.06,600.29 761.06,479.71 278.74,479.71 278.74,278.74 921.84,278.74 921.84,158.16 	"/>
	<path class="st14" d="M318.94,318.94v120.58h482.32v200.97H278.74H158.16v120.58v40.19v120.58h120.58h522.51h120.58V801.26v-40.19
		V640.48V439.52V318.94H801.26H318.94z M801.26,801.26H278.74v-40.19h522.51V801.26z"/>
</g>
</svg>
