<svg id="Layer_1" data-name="Layer 1" xmlns="http://www.w3.org/2000/svg" viewBox="0 0 1080 1080"><defs><style>.cls-1{fill:#40514e;}.cls-1,.cls-2{stroke:#fff;stroke-miterlimit:10;stroke-width:2px;}.cls-2{fill:#11999e;}</style></defs><path class="cls-1" d="M538.41,779.36c-143.32,0-259.51-116.19-259.51-259.51,0-131.59,98-240.22,224.91-257.15V2C233.3,19.81,19.39,244.83,19.39,519.85c0,286.64,232.37,519,519,519a517.81,517.81,0,0,0,190.31-36V696.21A258.77,258.77,0,0,1,538.41,779.36Z"/><path class="cls-2" d="M573,2V262.7c127,16.93,224.91,125.56,224.91,257.15v519h259.51v-519C1057.43,244.83,843.52,19.81,573,2Z"/></svg>