<svg id="Layer_1" data-name="Layer 1" xmlns="http://www.w3.org/2000/svg" viewBox="0 0 1080 1080"><defs><style>.cls-1{fill:#df4a32;}.cls-2{fill:#f79420;}.cls-3{fill:#00a99d;}.cls-4{fill:#40514e;stroke:#fff;stroke-miterlimit:10;stroke-width:2px;}</style></defs><g id="Layer_5" data-name="Layer 5"><polyline class="cls-1" points="748.15 157.32 921.83 158.17 922.68 331.86 882.84 371.7 708.3 371.7 708.3 197.16 748.15 157.32"/><polyline class="cls-2" points="708.3 609.71 746.28 571.74 837.97 663.41 708.3 663.41 708.3 609.71"/><polyline class="cls-2" points="609.71 708.3 663.41 708.3 663.41 837.95 571.74 746.28 609.71 708.3"/><polyline class="cls-2" points="470.29 708.3 508.26 746.28 416.59 837.97 416.59 708.3 470.29 708.3"/><polyline class="cls-2" points="371.7 663.41 242.03 663.41 333.72 571.74 371.7 609.71 371.7 663.41"/><polyline class="cls-2" points="371.7 470.29 333.72 508.26 242.03 416.59 371.7 416.59 371.7 470.29"/><polyline class="cls-2" points="470.29 371.7 416.59 371.7 416.59 242.03 508.26 333.72 470.29 371.7"/><polyline class="cls-2" points="609.71 371.7 571.74 333.72 663.41 242.05 663.41 371.7 609.71 371.7"/><polyline class="cls-2" points="708.3 470.29 708.3 416.59 837.97 416.59 746.28 508.26 708.3 470.29"/><polyline class="cls-3" points="416.59 122.22 540 0 663.41 122.22 663.41 178.56 540 301.97 416.59 178.56 416.59 122.22"/><polyline class="cls-1" points="157.32 331.86 158.17 158.17 331.86 157.32 371.7 197.16 371.7 371.7 197.16 371.7 157.32 331.86"/><polyline class="cls-3" points="122.22 663.41 0 540 122.22 416.59 178.56 416.59 301.99 540 178.56 663.41 122.22 663.41"/><polyline class="cls-1" points="331.86 922.68 158.17 921.83 157.32 748.14 197.16 708.3 371.7 708.3 371.7 882.84 331.86 922.68"/><polyline class="cls-3" points="663.41 957.78 540 1080 416.59 957.78 416.59 901.44 540 778.03 663.41 901.44 663.41 957.78"/><polyline class="cls-1" points="922.68 748.14 921.83 921.83 748.15 922.68 708.3 882.84 708.3 708.3 882.84 708.3 922.68 748.14"/><polyline class="cls-3" points="901.44 663.41 778.03 540 901.44 416.59 957.78 416.59 1080 540 957.78 663.41 901.44 663.41"/></g><path class="cls-4" d="M540,616.38A76.55,76.55,0,0,1,529.8,464V387.06A153,153,0,0,0,387.06,539.83c0,84.56,68.47,153.11,152.94,153.11a152.5,152.5,0,0,0,56.08-10.62V591.85A76.23,76.23,0,0,1,540,616.38Z"/><path class="cls-4" d="M550.2,387.06V464a76.53,76.53,0,0,1,66.27,75.86V692.94h76.47V539.83A153,153,0,0,0,550.2,387.06Z"/></svg>